<?xml version="1.0" encoding="utf-8"?><!-- Uploaded to: SVG Repo, www.svgrepo.com, Generator: SVG Repo Mixer Tools -->
<svg fill="#000000" width="800px" height="800px" viewBox="0 0 24 24" id="door-handle-2" data-name="Flat Line" xmlns="http://www.w3.org/2000/svg" class="icon flat-line"><path id="secondary" d="M13,11a2,2,0,0,0,0-4H10.1A5,5,0,0,1,20,8v8a5,5,0,0,1-10,0V11Z" style="fill: rgb(44, 169, 188); stroke-width: 2;"></path><path id="primary" d="M10,11v5a5,5,0,0,0,5,5h0a5,5,0,0,0,5-5V8a5,5,0,0,0-5-5h0a5,5,0,0,0-4.9,4" style="fill: none; stroke: rgb(0, 0, 0); stroke-linecap: round; stroke-linejoin: round; stroke-width: 2;"></path><path id="primary-2" data-name="primary" d="M6,11h7a2,2,0,0,0,2-2h0a2,2,0,0,0-2-2H6A2,2,0,0,0,4,9H4A2,2,0,0,0,6,11Z" style="fill: none; stroke: rgb(0, 0, 0); stroke-linecap: round; stroke-linejoin: round; stroke-width: 2;"></path><line id="primary-upstroke" x1="15.05" y1="16" x2="14.95" y2="16" style="fill: none; stroke: rgb(0, 0, 0); stroke-linecap: round; stroke-linejoin: round; stroke-width: 2.5;"></line></svg>